<svg viewBox="0 0 24 24" fill="none" xmlns="http://www.w3.org/2000/svg">
<path fill-rule="evenodd" clip-rule="evenodd" d="M6.43154 9.51075C6.70175 9.1968 7.1753 9.16134 7.48924 9.43154L7 10L6.51075 10.5685C6.1968 10.2982 6.16134 9.8247 6.43154 9.51075ZM11.5699 12.9909L15.4973 9.44344C15.8046 9.16578 16.2789 9.18989 16.5566 9.49727C16.8342 9.80465 16.8101 10.2789 16.5027 10.5566L12.0744 14.5566C11.7887 14.8147 11.3539 14.8145 11.0684 14.5561C10.338 13.8951 9.20036 12.8996 8.24135 12.0661C7.76267 11.65 7.32992 11.2755 7.01684 11.005C6.8603 10.8698 6.73371 10.7606 6.64629 10.6852L6.51075 10.5685L7 10L7.48924 9.43154L7.62573 9.54914C7.7135 9.62481 7.84048 9.73436 7.99745 9.86996C8.31135 10.1411 8.74528 10.5167 9.22536 10.9339C9.98659 11.5956 10.8674 12.3653 11.5699 12.9909Z" fill="currentColor"/>
</svg>